M48
;Layer_Color=9474304
;FILE_FORMAT=2:3
INCH,LZ
;TYPE=PLATED
T1F00S00C0.015
T2F00S00C0.061
%
T01
X0115Y00145
X0123Y0023
X01149Y00309
X01097Y00534
X01227
X01357
X01487
X01617
X01747
X01877
X0192Y00686
X0179
X0166
X0153
X014
X0127
X0114
X0212Y0069
Y0052
X02215Y0061
X02129Y01054
X02204Y01144
X02114Y01219
X0101Y00686
X0088
X0075
X0062
X0049
X0036
X00185Y00695
X0018Y0053
X00105Y006
X0018Y0031
X00179Y00144
X0009Y0023
X00389Y00154
X00519
X00649
X00779
X00909
X00949Y00306
X00819
X00689
X00559
X00429
X00447Y00534
X00577
X00707
X00837
X00967
X00184Y01054
X00099Y01144
X00184Y01229
T02
X01153Y0023
X01253Y0013
Y0033
X0202Y0051
X0212Y0061
X0222Y0051
Y0071
X0202
X0202Y0104
X0222
X0212Y0114
X01053Y0033
Y0013
X00285
X00185Y0023
X00085Y0033
X00085Y0051
X00185Y0061
X00085Y0071
X00285
Y0051
X00285Y0033
X00085Y0013
Y0104
X00285
X00185Y0114
X00285Y0124
X00085
X0202
X0222
M30
