G04*
G04 #@! TF.GenerationSoftware,Altium Limited,Altium Designer,20.0.13 (296)*
G04*
G04 Layer_Color=8388736*
%FSLAX23Y23*%
%MOIN*%
G70*
G01*
G75*
%ADD17R,0.030X0.051*%
%ADD18R,0.046X0.076*%
%ADD19R,0.051X0.063*%
%ADD20R,0.087X0.087*%
%ADD21C,0.087*%
%ADD22C,0.036*%
G36*
X1781Y329D02*
X1783D01*
X1784Y329D01*
X1786Y328D01*
X1788Y328D01*
X1791Y327D01*
X1793Y326D01*
X1796Y325D01*
X1798Y324D01*
X1801Y322D01*
X1803Y320D01*
X1806Y318D01*
X1809Y316D01*
X1811Y313D01*
X1811Y313D01*
X1811Y313D01*
X1812Y312D01*
X1812Y311D01*
X1813Y310D01*
X1813Y309D01*
X1815Y306D01*
X1816Y302D01*
X1818Y298D01*
X1818Y294D01*
X1819Y291D01*
Y289D01*
Y266D01*
X1835D01*
X1836Y266D01*
X1838D01*
X1839Y266D01*
X1841Y265D01*
X1843Y265D01*
X1846Y264D01*
X1848Y263D01*
X1851Y262D01*
X1853Y261D01*
X1856Y259D01*
X1859Y258D01*
X1861Y255D01*
X1864Y253D01*
X1866Y250D01*
X1866Y250D01*
X1866Y250D01*
X1867Y249D01*
X1867Y248D01*
X1868Y247D01*
X1869Y246D01*
X1870Y243D01*
X1871Y239D01*
X1873Y235D01*
X1874Y231D01*
X1874Y228D01*
Y226D01*
Y225D01*
Y225D01*
X1874Y224D01*
Y222D01*
X1873Y221D01*
X1873Y218D01*
X1873Y216D01*
X1872Y214D01*
X1871Y211D01*
X1870Y209D01*
X1869Y206D01*
X1868Y203D01*
X1866Y201D01*
X1864Y198D01*
X1861Y196D01*
X1858Y193D01*
X1858D01*
X1858Y193D01*
X1857Y193D01*
X1857Y192D01*
X1855Y192D01*
X1854Y191D01*
X1851Y189D01*
X1848Y188D01*
X1844Y186D01*
X1839Y186D01*
X1837Y185D01*
X1835Y185D01*
X1819D01*
Y171D01*
Y171D01*
Y170D01*
X1819Y169D01*
Y167D01*
X1818Y166D01*
X1818Y164D01*
X1818Y161D01*
X1817Y159D01*
X1816Y156D01*
X1815Y154D01*
X1814Y151D01*
X1812Y148D01*
X1810Y146D01*
X1808Y143D01*
X1806Y140D01*
X1803Y138D01*
X1803D01*
X1803Y138D01*
X1802Y137D01*
X1801Y137D01*
X1800Y136D01*
X1799Y135D01*
X1796Y134D01*
X1793Y133D01*
X1788Y131D01*
X1784Y130D01*
X1782Y130D01*
X1779Y130D01*
X1778D01*
X1777Y130D01*
X1776D01*
X1774Y131D01*
X1773Y131D01*
X1770Y131D01*
X1768Y132D01*
X1766Y133D01*
X1763Y134D01*
X1761Y135D01*
X1758Y137D01*
X1755Y139D01*
X1753Y141D01*
X1750Y143D01*
X1748Y146D01*
Y146D01*
X1748Y147D01*
X1747Y147D01*
X1747Y148D01*
X1746Y149D01*
X1745Y150D01*
X1744Y153D01*
X1742Y157D01*
X1741Y161D01*
X1740Y166D01*
X1740Y168D01*
X1740Y171D01*
Y185D01*
X1724D01*
X1723Y185D01*
X1721D01*
X1720Y186D01*
X1718Y186D01*
X1716Y186D01*
X1713Y187D01*
X1711Y188D01*
X1708Y189D01*
X1706Y190D01*
X1703Y192D01*
X1701Y194D01*
X1698Y196D01*
X1696Y198D01*
X1693Y201D01*
Y201D01*
X1693Y201D01*
X1693Y202D01*
X1692Y203D01*
X1691Y204D01*
X1691Y205D01*
X1689Y208D01*
X1688Y212D01*
X1686Y216D01*
X1685Y221D01*
X1685Y223D01*
X1685Y226D01*
Y226D01*
Y226D01*
X1685Y228D01*
Y229D01*
X1686Y231D01*
X1686Y233D01*
X1686Y235D01*
X1687Y237D01*
X1688Y240D01*
X1689Y242D01*
X1690Y245D01*
X1692Y248D01*
X1694Y250D01*
X1696Y253D01*
X1698Y256D01*
X1701Y258D01*
X1701Y258D01*
X1701Y258D01*
X1702Y259D01*
X1703Y259D01*
X1704Y260D01*
X1705Y261D01*
X1708Y262D01*
X1711Y264D01*
X1715Y265D01*
X1720Y266D01*
X1722Y266D01*
X1740D01*
Y289D01*
Y289D01*
Y290D01*
X1740Y291D01*
Y292D01*
X1740Y294D01*
X1741Y296D01*
X1741Y298D01*
X1742Y300D01*
X1743Y303D01*
X1744Y305D01*
X1745Y308D01*
X1746Y311D01*
X1748Y313D01*
X1750Y316D01*
X1753Y318D01*
X1755Y321D01*
X1756Y321D01*
X1756Y321D01*
X1756Y322D01*
X1757Y322D01*
X1758Y323D01*
X1759Y323D01*
X1762Y325D01*
X1766Y327D01*
X1770Y328D01*
X1774Y329D01*
X1777Y329D01*
X1780D01*
X1781Y329D01*
D02*
G37*
%LPC*%
G36*
X1779Y314D02*
X1778D01*
X1777Y313D01*
X1776Y313D01*
X1775Y313D01*
X1772Y312D01*
X1768Y311D01*
X1767Y310D01*
X1765Y309D01*
X1763Y307D01*
X1762Y306D01*
X1760Y304D01*
X1759Y302D01*
X1758Y302D01*
X1758Y301D01*
X1757Y300D01*
X1757Y298D01*
X1756Y296D01*
X1755Y294D01*
X1755Y291D01*
X1755Y289D01*
Y231D01*
X1767Y241D01*
Y289D01*
Y289D01*
Y289D01*
X1767Y290D01*
X1767Y291D01*
X1768Y293D01*
X1769Y295D01*
X1770Y297D01*
X1772Y299D01*
X1774Y300D01*
X1775D01*
X1775Y300D01*
X1776Y301D01*
X1777Y301D01*
X1779Y301D01*
X1780D01*
X1781Y301D01*
X1782Y301D01*
X1784Y300D01*
X1786Y299D01*
X1788Y298D01*
X1790Y296D01*
X1791Y293D01*
Y293D01*
X1791Y293D01*
X1792Y292D01*
X1792Y290D01*
X1792Y289D01*
Y289D01*
X1792Y288D01*
X1792Y286D01*
X1791Y285D01*
X1790Y283D01*
X1789Y280D01*
X1787Y279D01*
X1785Y277D01*
X1784D01*
X1784Y277D01*
X1784Y277D01*
X1783Y277D01*
X1781Y276D01*
X1779Y276D01*
X1776D01*
Y264D01*
X1781D01*
X1781Y264D01*
X1783Y264D01*
X1784Y264D01*
X1787Y265D01*
X1790Y267D01*
X1792Y268D01*
X1794Y269D01*
X1796Y270D01*
X1797Y272D01*
X1799Y273D01*
X1800Y275D01*
X1800Y276D01*
X1801Y277D01*
X1801Y278D01*
X1802Y280D01*
X1803Y282D01*
X1803Y284D01*
X1804Y286D01*
X1804Y289D01*
Y289D01*
Y290D01*
Y290D01*
X1804Y291D01*
X1803Y293D01*
X1803Y294D01*
X1802Y297D01*
X1801Y300D01*
X1800Y302D01*
X1799Y304D01*
X1798Y305D01*
X1796Y307D01*
X1794Y309D01*
X1792Y310D01*
X1792Y310D01*
X1791Y310D01*
X1790Y311D01*
X1788Y312D01*
X1786Y313D01*
X1784Y313D01*
X1782Y313D01*
X1779Y314D01*
D02*
G37*
G36*
X1835Y251D02*
X1810D01*
X1808Y250D01*
X1806Y250D01*
X1804Y250D01*
X1801Y249D01*
X1798Y248D01*
X1796Y246D01*
X1795Y246D01*
X1795Y246D01*
X1794Y245D01*
X1793Y244D01*
X1793Y244D01*
X1792Y244D01*
X1791Y243D01*
X1790Y242D01*
X1789Y241D01*
X1761Y218D01*
X1758Y216D01*
X1758Y216D01*
X1757Y216D01*
X1756Y215D01*
X1755Y215D01*
X1754Y214D01*
X1752Y213D01*
X1751Y213D01*
X1749Y213D01*
X1724D01*
X1723Y213D01*
X1722Y213D01*
X1720Y214D01*
X1718Y215D01*
X1716Y216D01*
X1714Y218D01*
X1713Y221D01*
Y221D01*
X1713Y221D01*
X1712Y222D01*
X1712Y224D01*
X1712Y226D01*
Y226D01*
Y226D01*
X1712Y227D01*
X1712Y228D01*
X1713Y230D01*
X1714Y232D01*
X1715Y234D01*
X1717Y236D01*
X1720Y237D01*
X1720D01*
X1720Y238D01*
X1721Y238D01*
X1723Y238D01*
X1724Y238D01*
X1740D01*
Y251D01*
X1723D01*
X1722Y250D01*
X1721Y250D01*
X1720Y250D01*
X1717Y249D01*
X1714Y248D01*
X1712Y247D01*
X1710Y246D01*
X1708Y244D01*
X1707Y243D01*
X1705Y241D01*
X1704Y239D01*
X1704Y238D01*
X1703Y238D01*
X1703Y236D01*
X1702Y235D01*
X1701Y233D01*
X1701Y231D01*
X1700Y228D01*
X1700Y226D01*
Y225D01*
Y225D01*
Y224D01*
X1700Y223D01*
X1700Y222D01*
X1701Y221D01*
X1701Y218D01*
X1703Y214D01*
X1704Y213D01*
X1705Y211D01*
X1706Y209D01*
X1708Y207D01*
X1709Y206D01*
X1711Y204D01*
X1712Y204D01*
X1713Y204D01*
X1714Y203D01*
X1715Y203D01*
X1717Y202D01*
X1719Y201D01*
X1722Y201D01*
X1724Y201D01*
X1751D01*
X1753Y201D01*
X1754Y201D01*
X1756Y202D01*
X1759Y203D01*
X1761Y204D01*
X1764Y206D01*
X1764Y206D01*
X1764Y206D01*
X1765Y206D01*
X1766Y207D01*
X1767Y208D01*
X1768Y208D01*
X1768Y209D01*
X1769Y209D01*
X1769Y209D01*
X1770Y210D01*
X1770Y210D01*
X1771Y211D01*
X1771Y211D01*
X1771Y211D01*
X1772Y211D01*
X1773Y212D01*
X1774Y213D01*
X1775Y214D01*
X1776Y215D01*
X1778Y216D01*
X1782Y219D01*
X1786Y223D01*
X1791Y227D01*
X1797Y232D01*
X1797Y232D01*
X1797Y233D01*
X1798Y233D01*
X1799Y233D01*
X1800Y234D01*
X1801Y235D01*
X1801Y235D01*
X1801Y235D01*
X1802Y236D01*
X1803Y236D01*
X1804Y237D01*
X1806Y237D01*
X1808Y238D01*
X1809Y238D01*
X1811Y238D01*
X1835D01*
X1836Y238D01*
X1837Y238D01*
X1839Y237D01*
X1841Y236D01*
X1843Y235D01*
X1845Y233D01*
X1846Y231D01*
Y231D01*
X1846Y230D01*
X1847Y230D01*
X1847Y229D01*
X1847Y227D01*
X1847Y226D01*
Y225D01*
X1847Y224D01*
X1847Y223D01*
X1846Y221D01*
X1845Y219D01*
X1844Y217D01*
X1842Y216D01*
X1840Y214D01*
X1840D01*
X1839Y214D01*
X1839Y214D01*
X1838Y213D01*
X1836Y213D01*
X1835Y213D01*
X1819D01*
Y201D01*
X1836D01*
X1837Y201D01*
X1838Y201D01*
X1839Y201D01*
X1842Y202D01*
X1845Y203D01*
X1847Y205D01*
X1849Y206D01*
X1851Y207D01*
X1852Y208D01*
X1854Y210D01*
X1855Y212D01*
X1855Y213D01*
X1856Y213D01*
X1856Y215D01*
X1857Y216D01*
X1858Y218D01*
X1858Y221D01*
X1859Y223D01*
X1859Y226D01*
Y226D01*
Y226D01*
Y227D01*
X1859Y228D01*
X1859Y229D01*
X1858Y230D01*
X1858Y233D01*
X1856Y237D01*
X1855Y239D01*
X1854Y241D01*
X1853Y242D01*
X1851Y244D01*
X1850Y246D01*
X1848Y247D01*
X1847Y247D01*
X1846Y248D01*
X1845Y248D01*
X1844Y249D01*
X1842Y250D01*
X1840Y250D01*
X1837Y250D01*
X1835Y251D01*
D02*
G37*
G36*
X1804Y221D02*
X1792Y211D01*
Y171D01*
Y171D01*
Y170D01*
X1792Y169D01*
X1791Y168D01*
X1791Y166D01*
X1790Y164D01*
X1788Y162D01*
X1787Y160D01*
X1784Y159D01*
X1784D01*
X1784Y159D01*
X1783Y158D01*
X1781Y158D01*
X1779Y158D01*
X1779D01*
X1778Y158D01*
X1776Y158D01*
X1775Y159D01*
X1773Y160D01*
X1771Y161D01*
X1769Y163D01*
X1768Y166D01*
Y166D01*
X1768Y166D01*
X1768Y166D01*
Y167D01*
X1767Y169D01*
X1767Y171D01*
Y186D01*
X1755D01*
Y171D01*
Y171D01*
Y170D01*
Y169D01*
X1755Y169D01*
X1755Y167D01*
X1755Y166D01*
X1756Y163D01*
X1758Y159D01*
X1759Y158D01*
X1760Y156D01*
X1761Y154D01*
X1763Y152D01*
X1764Y151D01*
X1766Y149D01*
X1767Y149D01*
X1768Y149D01*
X1769Y148D01*
X1770Y147D01*
X1772Y147D01*
X1774Y146D01*
X1777Y146D01*
X1779Y146D01*
X1781D01*
X1781Y146D01*
X1783Y146D01*
X1784Y146D01*
X1787Y147D01*
X1790Y148D01*
X1792Y149D01*
X1794Y151D01*
X1796Y152D01*
X1797Y153D01*
X1799Y155D01*
X1800Y157D01*
X1800Y158D01*
X1801Y158D01*
X1801Y160D01*
X1802Y161D01*
X1803Y163D01*
X1803Y166D01*
X1804Y168D01*
X1804Y171D01*
Y221D01*
D02*
G37*
%LPD*%
D17*
X1848Y966D02*
D03*
X1922D02*
D03*
X1885Y1054D02*
D03*
X580D02*
D03*
X617Y966D02*
D03*
X543D02*
D03*
X725Y1054D02*
D03*
X762Y966D02*
D03*
X688D02*
D03*
X870Y1054D02*
D03*
X907Y966D02*
D03*
X833D02*
D03*
X1015Y1054D02*
D03*
X1052Y966D02*
D03*
X978D02*
D03*
X1160Y1054D02*
D03*
X1197Y966D02*
D03*
X1123D02*
D03*
X1305Y1054D02*
D03*
X1342Y966D02*
D03*
X1268D02*
D03*
X1450Y1054D02*
D03*
X1487Y966D02*
D03*
X1413D02*
D03*
X1595Y1054D02*
D03*
X1632Y966D02*
D03*
X1558D02*
D03*
X1740Y1054D02*
D03*
X1777Y966D02*
D03*
X1703D02*
D03*
D18*
X800Y1140D02*
D03*
X870D02*
D03*
X1885D02*
D03*
X1815D02*
D03*
X1740D02*
D03*
X1670D02*
D03*
X1595D02*
D03*
X1525D02*
D03*
X1450D02*
D03*
X1380D02*
D03*
X1305D02*
D03*
X1235D02*
D03*
X1160D02*
D03*
X1090D02*
D03*
X1015D02*
D03*
X945D02*
D03*
X725D02*
D03*
X655D02*
D03*
X580Y1140D02*
D03*
X510D02*
D03*
D19*
X371Y1140D02*
D03*
X439D02*
D03*
D20*
X1153Y230D02*
D03*
X185D02*
D03*
X185Y610D02*
D03*
X2120D02*
D03*
X185Y1140D02*
D03*
X2120D02*
D03*
D21*
X1253Y130D02*
D03*
Y330D02*
D03*
X1053D02*
D03*
Y130D02*
D03*
X85Y330D02*
D03*
Y130D02*
D03*
X285D02*
D03*
Y330D02*
D03*
X85Y710D02*
D03*
Y510D02*
D03*
X285D02*
D03*
Y710D02*
D03*
X2220Y510D02*
D03*
Y710D02*
D03*
X2020D02*
D03*
Y510D02*
D03*
X285Y1240D02*
D03*
Y1040D02*
D03*
X85D02*
D03*
Y1240D02*
D03*
X2020Y1040D02*
D03*
Y1240D02*
D03*
X2220D02*
D03*
Y1040D02*
D03*
D22*
X2129Y1054D02*
D03*
X2204Y1144D02*
D03*
X2114Y1219D02*
D03*
X184Y1054D02*
D03*
X99Y1144D02*
D03*
X184Y1229D02*
D03*
X1149Y309D02*
D03*
X179Y144D02*
D03*
X949Y306D02*
D03*
X819D02*
D03*
X689D02*
D03*
X559D02*
D03*
X429D02*
D03*
X180Y310D02*
D03*
X90Y230D02*
D03*
X389Y154D02*
D03*
X519D02*
D03*
X649D02*
D03*
X779D02*
D03*
X909D02*
D03*
X1150Y145D02*
D03*
X1230Y230D02*
D03*
X2120Y690D02*
D03*
X185Y695D02*
D03*
X1920Y686D02*
D03*
X1790D02*
D03*
X1660D02*
D03*
X1530D02*
D03*
X1400D02*
D03*
X1270D02*
D03*
X1140D02*
D03*
X1010D02*
D03*
X880D02*
D03*
X750D02*
D03*
X620D02*
D03*
X490D02*
D03*
X360D02*
D03*
X105Y600D02*
D03*
X180Y530D02*
D03*
X447Y534D02*
D03*
X577D02*
D03*
X707D02*
D03*
X837D02*
D03*
X967D02*
D03*
X1097D02*
D03*
X1227D02*
D03*
X1357D02*
D03*
X1487D02*
D03*
X1617D02*
D03*
X1747D02*
D03*
X1877D02*
D03*
X2120Y520D02*
D03*
X2215Y610D02*
D03*
M02*
