G04*
G04 #@! TF.GenerationSoftware,Altium Limited,Altium Designer,20.0.13 (296)*
G04*
G04 Layer_Color=8421504*
%FSLAX23Y23*%
%MOIN*%
G70*
G01*
G75*
%ADD14R,0.024X0.045*%
%ADD15R,0.040X0.070*%
%ADD16R,0.045X0.057*%
D14*
X1848Y966D02*
D03*
X1922D02*
D03*
X1885Y1054D02*
D03*
X580D02*
D03*
X617Y966D02*
D03*
X543D02*
D03*
X725Y1054D02*
D03*
X762Y966D02*
D03*
X688D02*
D03*
X870Y1054D02*
D03*
X907Y966D02*
D03*
X833D02*
D03*
X1015Y1054D02*
D03*
X1052Y966D02*
D03*
X978D02*
D03*
X1160Y1054D02*
D03*
X1197Y966D02*
D03*
X1123D02*
D03*
X1305Y1054D02*
D03*
X1342Y966D02*
D03*
X1268D02*
D03*
X1450Y1054D02*
D03*
X1487Y966D02*
D03*
X1413D02*
D03*
X1595Y1054D02*
D03*
X1632Y966D02*
D03*
X1558D02*
D03*
X1740Y1054D02*
D03*
X1777Y966D02*
D03*
X1703D02*
D03*
D15*
X800Y1140D02*
D03*
X870D02*
D03*
X1885D02*
D03*
X1815D02*
D03*
X1740D02*
D03*
X1670D02*
D03*
X1595D02*
D03*
X1525D02*
D03*
X1450D02*
D03*
X1380D02*
D03*
X1305D02*
D03*
X1235D02*
D03*
X1160D02*
D03*
X1090D02*
D03*
X1015D02*
D03*
X945D02*
D03*
X725D02*
D03*
X655D02*
D03*
X580Y1140D02*
D03*
X510D02*
D03*
D16*
X371Y1140D02*
D03*
X439D02*
D03*
M02*
