G04*
G04 #@! TF.GenerationSoftware,Altium Limited,Altium Designer,20.0.13 (296)*
G04*
G04 Layer_Color=8388736*
%FSLAX23Y23*%
%MOIN*%
G70*
G01*
G75*
%ADD28C,0.001*%
D28*
X790Y1106D02*
Y1174D01*
Y1106D02*
X880D01*
X790Y1174D02*
X880D01*
Y1106D02*
Y1174D01*
X1895Y1106D02*
Y1174D01*
X1805D02*
X1895D01*
X1805Y1106D02*
X1895D01*
X1805D02*
Y1174D01*
X1750Y1106D02*
Y1174D01*
X1660D02*
X1750D01*
X1660Y1106D02*
X1750D01*
X1660D02*
Y1174D01*
X1605Y1106D02*
Y1174D01*
X1515D02*
X1605D01*
X1515Y1106D02*
X1605D01*
X1515D02*
Y1174D01*
X1460Y1106D02*
Y1174D01*
X1370D02*
X1460D01*
X1370Y1106D02*
X1460D01*
X1370D02*
Y1174D01*
X1315Y1106D02*
Y1174D01*
X1225D02*
X1315D01*
X1225Y1106D02*
X1315D01*
X1225D02*
Y1174D01*
X1170Y1106D02*
Y1174D01*
X1080D02*
X1170D01*
X1080Y1106D02*
X1170D01*
X1080D02*
Y1174D01*
X1025Y1106D02*
Y1174D01*
X935D02*
X1025D01*
X935Y1106D02*
X1025D01*
X935D02*
Y1174D01*
X735Y1106D02*
Y1174D01*
X645D02*
X735D01*
X645Y1106D02*
X735D01*
X645D02*
Y1174D01*
X590Y1106D02*
Y1174D01*
X500D02*
X590D01*
X500Y1106D02*
X590D01*
X500D02*
Y1174D01*
M02*
