G04*
G04 #@! TF.GenerationSoftware,Altium Limited,Altium Designer,20.0.13 (296)*
G04*
G04 Layer_Color=65535*
%FSLAX23Y23*%
%MOIN*%
G70*
G01*
G75*
%ADD10C,0.010*%
%ADD11C,0.008*%
%ADD12C,0.005*%
%ADD13C,0.010*%
D10*
X1856Y1063D02*
G03*
X1856Y1063I-5J0D01*
G01*
X551D02*
G03*
X551Y1063I-5J0D01*
G01*
X696D02*
G03*
X696Y1063I-5J0D01*
G01*
X841D02*
G03*
X841Y1063I-5J0D01*
G01*
X986D02*
G03*
X986Y1063I-5J0D01*
G01*
X1131D02*
G03*
X1131Y1063I-5J0D01*
G01*
X1276D02*
G03*
X1276Y1063I-5J0D01*
G01*
X1421D02*
G03*
X1421Y1063I-5J0D01*
G01*
X1566D02*
G03*
X1566Y1063I-5J0D01*
G01*
X1711D02*
G03*
X1711Y1063I-5J0D01*
G01*
D11*
X1826Y1002D02*
Y1038D01*
X1857D01*
X1944Y1002D02*
Y1038D01*
X1913D02*
X1944D01*
X1103Y105D02*
X1202D01*
X1028Y180D02*
Y280D01*
X1103Y355D02*
X1202D01*
X135D02*
X235D01*
X310Y180D02*
Y280D01*
X135Y105D02*
X235D01*
X136Y735D02*
X235D01*
X310Y560D02*
Y660D01*
X136Y485D02*
X235D01*
X2071D02*
X2170D01*
X1995Y560D02*
Y660D01*
X2071Y735D02*
X2170D01*
X135Y1015D02*
X235D01*
X310Y1090D02*
Y1190D01*
X135Y1265D02*
X235D01*
X2070D02*
X2170D01*
X1995Y1090D02*
Y1190D01*
X2070Y1015D02*
X2170D01*
X608Y1038D02*
X639D01*
Y1002D02*
Y1038D01*
X521D02*
X552D01*
X521Y1002D02*
Y1038D01*
X753D02*
X784D01*
Y1002D02*
Y1038D01*
X666D02*
X697D01*
X666Y1002D02*
Y1038D01*
X898D02*
X929D01*
Y1002D02*
Y1038D01*
X811D02*
X842D01*
X811Y1002D02*
Y1038D01*
X1043D02*
X1074D01*
Y1002D02*
Y1038D01*
X956D02*
X987D01*
X956Y1002D02*
Y1038D01*
X1188D02*
X1219D01*
Y1002D02*
Y1038D01*
X1101D02*
X1132D01*
X1101Y1002D02*
Y1038D01*
X1333D02*
X1364D01*
Y1002D02*
Y1038D01*
X1246D02*
X1277D01*
X1246Y1002D02*
Y1038D01*
X1478D02*
X1509D01*
Y1002D02*
Y1038D01*
X1391D02*
X1422D01*
X1391Y1002D02*
Y1038D01*
X1623D02*
X1654D01*
Y1002D02*
Y1038D01*
X1536D02*
X1567D01*
X1536Y1002D02*
Y1038D01*
X1768D02*
X1799D01*
Y1002D02*
Y1038D01*
X1681D02*
X1712D01*
X1681Y1002D02*
Y1038D01*
D12*
X773Y1098D02*
X820D01*
X850Y1182D02*
X897Y1182D01*
Y1098D02*
Y1182D01*
X850Y1098D02*
X897Y1098D01*
X773Y1098D02*
Y1182D01*
X820D01*
X1788D02*
X1835D01*
X1788Y1098D02*
Y1182D01*
X1865Y1098D02*
X1912Y1098D01*
Y1182D01*
X1865Y1182D02*
X1912Y1182D01*
X1788Y1098D02*
X1835D01*
X1643Y1182D02*
X1690D01*
X1643Y1098D02*
Y1182D01*
X1720Y1098D02*
X1767Y1098D01*
Y1182D01*
X1720Y1182D02*
X1767Y1182D01*
X1643Y1098D02*
X1690D01*
X1498Y1182D02*
X1545D01*
X1498Y1098D02*
Y1182D01*
X1575Y1098D02*
X1622Y1098D01*
Y1182D01*
X1575Y1182D02*
X1622Y1182D01*
X1498Y1098D02*
X1545D01*
X1353Y1182D02*
X1400D01*
X1353Y1098D02*
Y1182D01*
X1430Y1098D02*
X1477Y1098D01*
Y1182D01*
X1430Y1182D02*
X1477Y1182D01*
X1353Y1098D02*
X1400D01*
X1208Y1182D02*
X1255D01*
X1208Y1098D02*
Y1182D01*
X1285Y1098D02*
X1332Y1098D01*
Y1182D01*
X1285Y1182D02*
X1332Y1182D01*
X1208Y1098D02*
X1255D01*
X1063Y1182D02*
X1110D01*
X1063Y1098D02*
Y1182D01*
X1140Y1098D02*
X1187Y1098D01*
Y1182D01*
X1140Y1182D02*
X1187Y1182D01*
X1063Y1098D02*
X1110D01*
X918Y1182D02*
X965D01*
X918Y1098D02*
Y1182D01*
X995Y1098D02*
X1042Y1098D01*
Y1182D01*
X995Y1182D02*
X1042Y1182D01*
X918Y1098D02*
X965D01*
X628Y1182D02*
X675D01*
X628Y1098D02*
Y1182D01*
X705Y1098D02*
X752Y1098D01*
Y1182D01*
X705Y1182D02*
X752Y1182D01*
X628Y1098D02*
X675D01*
X483Y1182D02*
X530D01*
X483Y1098D02*
Y1182D01*
X560Y1098D02*
X607Y1098D01*
Y1182D01*
X560Y1182D02*
X607Y1182D01*
X483Y1098D02*
X530D01*
D13*
X1833Y900D02*
Y850D01*
X1858D01*
X1866Y858D01*
Y892D01*
X1858Y900D01*
X1833D01*
X1883Y850D02*
X1899D01*
X1891D01*
Y900D01*
X1883Y892D01*
X1924D02*
X1932Y900D01*
X1949D01*
X1957Y892D01*
Y858D01*
X1949Y850D01*
X1932D01*
X1924Y858D01*
Y892D01*
X900Y115D02*
X880D01*
X890D01*
Y65D01*
X880Y55D01*
X870D01*
X860Y65D01*
X960Y115D02*
X940Y105D01*
X920Y85D01*
Y65D01*
X930Y55D01*
X950D01*
X960Y65D01*
Y75D01*
X950Y85D01*
X920D01*
X380Y115D02*
X360D01*
X370D01*
Y65D01*
X360Y55D01*
X350D01*
X340Y65D01*
X440Y115D02*
X400D01*
Y85D01*
X420Y95D01*
X430D01*
X440Y85D01*
Y65D01*
X430Y55D01*
X410D01*
X400Y65D01*
X395Y800D02*
X375D01*
X385D01*
Y750D01*
X375Y740D01*
X365D01*
X355Y750D01*
X415Y790D02*
X425Y800D01*
X445D01*
X455Y790D01*
Y780D01*
X445Y770D01*
X435D01*
X445D01*
X455Y760D01*
Y750D01*
X445Y740D01*
X425D01*
X415Y750D01*
X1900Y800D02*
X1880D01*
X1890D01*
Y750D01*
X1880Y740D01*
X1870D01*
X1860Y750D01*
X1950Y740D02*
Y800D01*
X1920Y770D01*
X1960D01*
X450Y425D02*
X467D01*
X458D01*
Y475D01*
X450Y467D01*
X517Y425D02*
Y475D01*
X492Y450D01*
X525D01*
X567Y425D02*
Y475D01*
X542Y450D01*
X575D01*
X592Y425D02*
Y475D01*
X608Y458D01*
X625Y475D01*
Y425D01*
X642Y475D02*
Y425D01*
Y450D01*
X650Y458D01*
X667D01*
X675Y450D01*
Y425D01*
X692Y458D02*
X725D01*
X692Y425D01*
X725D01*
X792Y475D02*
Y442D01*
X808Y425D01*
X825Y442D01*
Y475D01*
X850Y458D02*
X867D01*
X875Y450D01*
Y425D01*
X850D01*
X842Y433D01*
X850Y442D01*
X875D01*
X892Y458D02*
Y425D01*
Y442D01*
X900Y450D01*
X908Y458D01*
X917D01*
X950D02*
X966D01*
X975Y450D01*
Y425D01*
X950D01*
X942Y433D01*
X950Y442D01*
X975D01*
X1025Y458D02*
X1000D01*
X991Y450D01*
Y433D01*
X1000Y425D01*
X1025D01*
X1050Y467D02*
Y458D01*
X1041D01*
X1058D01*
X1050D01*
Y433D01*
X1058Y425D01*
X1091D02*
X1108D01*
X1116Y433D01*
Y450D01*
X1108Y458D01*
X1091D01*
X1083Y450D01*
Y433D01*
X1091Y425D01*
X1133Y458D02*
Y425D01*
Y442D01*
X1141Y450D01*
X1150Y458D01*
X1158D01*
X1233Y475D02*
Y425D01*
X1266D01*
X1291D02*
X1308D01*
X1316Y433D01*
Y450D01*
X1308Y458D01*
X1291D01*
X1283Y450D01*
Y433D01*
X1291Y425D01*
X1341Y458D02*
X1358D01*
X1366Y450D01*
Y425D01*
X1341D01*
X1333Y433D01*
X1341Y442D01*
X1366D01*
X1416Y475D02*
Y425D01*
X1391D01*
X1383Y433D01*
Y450D01*
X1391Y458D01*
X1416D01*
X1458Y425D02*
X1441D01*
X1433Y433D01*
Y450D01*
X1441Y458D01*
X1458D01*
X1466Y450D01*
Y442D01*
X1433D01*
X1516Y475D02*
Y425D01*
X1491D01*
X1483Y433D01*
Y450D01*
X1491Y458D01*
X1516D01*
X1583Y475D02*
X1616D01*
X1600D01*
Y425D01*
X1633Y458D02*
X1666Y425D01*
X1650Y442D01*
X1666Y458D01*
X1633Y425D01*
X1733Y475D02*
Y425D01*
X1766D01*
X1783D02*
X1800D01*
X1791D01*
Y458D01*
X1783D01*
X1825Y425D02*
Y458D01*
X1850D01*
X1858Y450D01*
Y425D01*
X1900D02*
X1883D01*
X1875Y433D01*
Y450D01*
X1883Y458D01*
X1900D01*
X1908Y450D01*
Y442D01*
X1875D01*
X765Y1300D02*
Y1240D01*
X805D01*
X825Y1290D02*
X835Y1300D01*
X855D01*
X865Y1290D01*
Y1280D01*
X855Y1270D01*
X845D01*
X855D01*
X865Y1260D01*
Y1250D01*
X855Y1240D01*
X835D01*
X825Y1250D01*
X375Y1220D02*
Y1280D01*
X405D01*
X415Y1270D01*
Y1250D01*
X405Y1240D01*
X375D01*
X395D02*
X415Y1220D01*
X435D02*
X455D01*
X445D01*
Y1280D01*
X435Y1270D01*
X1818Y1295D02*
Y1245D01*
X1851D01*
X1868D02*
X1884D01*
X1876D01*
Y1295D01*
X1868Y1287D01*
X1909D02*
X1918Y1295D01*
X1934D01*
X1943Y1287D01*
Y1253D01*
X1934Y1245D01*
X1918D01*
X1909Y1253D01*
Y1287D01*
X1678Y1295D02*
Y1245D01*
X1712D01*
X1728Y1253D02*
X1737Y1245D01*
X1753D01*
X1762Y1253D01*
Y1287D01*
X1753Y1295D01*
X1737D01*
X1728Y1287D01*
Y1278D01*
X1737Y1270D01*
X1762D01*
X1526Y1300D02*
Y1240D01*
X1566D01*
X1586Y1290D02*
X1596Y1300D01*
X1616D01*
X1626Y1290D01*
Y1280D01*
X1616Y1270D01*
X1626Y1260D01*
Y1250D01*
X1616Y1240D01*
X1596D01*
X1586Y1250D01*
Y1260D01*
X1596Y1270D01*
X1586Y1280D01*
Y1290D01*
X1596Y1270D02*
X1616D01*
X1373Y1300D02*
Y1240D01*
X1413D01*
X1433Y1300D02*
X1473D01*
Y1290D01*
X1433Y1250D01*
Y1240D01*
X1221Y1300D02*
Y1240D01*
X1261D01*
X1321Y1300D02*
X1301Y1290D01*
X1281Y1270D01*
Y1250D01*
X1291Y1240D01*
X1311D01*
X1321Y1250D01*
Y1260D01*
X1311Y1270D01*
X1281D01*
X1069Y1300D02*
Y1240D01*
X1109D01*
X1169Y1300D02*
X1129D01*
Y1270D01*
X1149Y1280D01*
X1159D01*
X1169Y1270D01*
Y1250D01*
X1159Y1240D01*
X1139D01*
X1129Y1250D01*
X917Y1300D02*
Y1240D01*
X957D01*
X1007D02*
Y1300D01*
X977Y1270D01*
X1017D01*
X635Y1300D02*
Y1240D01*
X675D01*
X735D02*
X695D01*
X735Y1280D01*
Y1290D01*
X725Y1300D01*
X705D01*
X695Y1290D01*
X515Y1300D02*
Y1240D01*
X555D01*
X575D02*
X595D01*
X585D01*
Y1300D01*
X575Y1290D01*
X2100Y965D02*
X2080D01*
X2090D01*
Y915D01*
X2080Y905D01*
X2070D01*
X2060Y915D01*
X2160Y905D02*
X2120D01*
X2160Y945D01*
Y955D01*
X2150Y965D01*
X2130D01*
X2120Y955D01*
X190Y970D02*
X170D01*
X180D01*
Y920D01*
X170Y910D01*
X160D01*
X150Y920D01*
X210Y910D02*
X230D01*
X220D01*
Y970D01*
X210Y960D01*
X1698Y901D02*
Y851D01*
X1723D01*
X1731Y859D01*
Y893D01*
X1723Y901D01*
X1698D01*
X1748Y859D02*
X1756Y851D01*
X1773D01*
X1781Y859D01*
Y893D01*
X1773Y901D01*
X1756D01*
X1748Y893D01*
Y884D01*
X1756Y876D01*
X1781D01*
X1553Y901D02*
Y851D01*
X1578D01*
X1586Y859D01*
Y893D01*
X1578Y901D01*
X1553D01*
X1603Y893D02*
X1611Y901D01*
X1628D01*
X1636Y893D01*
Y884D01*
X1628Y876D01*
X1636Y868D01*
Y859D01*
X1628Y851D01*
X1611D01*
X1603Y859D01*
Y868D01*
X1611Y876D01*
X1603Y884D01*
Y893D01*
X1611Y876D02*
X1628D01*
X1408Y901D02*
Y851D01*
X1433D01*
X1441Y859D01*
Y893D01*
X1433Y901D01*
X1408D01*
X1458D02*
X1491D01*
Y893D01*
X1458Y859D01*
Y851D01*
X1263Y901D02*
Y851D01*
X1288D01*
X1296Y859D01*
Y893D01*
X1288Y901D01*
X1263D01*
X1346D02*
X1330Y893D01*
X1313Y876D01*
Y859D01*
X1321Y851D01*
X1338D01*
X1346Y859D01*
Y868D01*
X1338Y876D01*
X1313D01*
X1118Y901D02*
Y851D01*
X1143D01*
X1151Y859D01*
Y893D01*
X1143Y901D01*
X1118D01*
X1201D02*
X1168D01*
Y876D01*
X1185Y884D01*
X1193D01*
X1201Y876D01*
Y859D01*
X1193Y851D01*
X1176D01*
X1168Y859D01*
X973Y901D02*
Y851D01*
X998D01*
X1006Y859D01*
Y893D01*
X998Y901D01*
X973D01*
X1048Y851D02*
Y901D01*
X1023Y876D01*
X1056D01*
X828Y901D02*
Y851D01*
X853D01*
X861Y859D01*
Y893D01*
X853Y901D01*
X828D01*
X878Y893D02*
X886Y901D01*
X903D01*
X911Y893D01*
Y884D01*
X903Y876D01*
X895D01*
X903D01*
X911Y868D01*
Y859D01*
X903Y851D01*
X886D01*
X878Y859D01*
X683Y901D02*
Y851D01*
X708D01*
X716Y859D01*
Y893D01*
X708Y901D01*
X683D01*
X766Y851D02*
X733D01*
X766Y884D01*
Y893D01*
X758Y901D01*
X741D01*
X733Y893D01*
X547Y901D02*
Y851D01*
X572D01*
X580Y859D01*
Y893D01*
X572Y901D01*
X547D01*
X597Y851D02*
X614D01*
X605D01*
Y901D01*
X597Y893D01*
M02*
